<?xml version="1.0" ?><!DOCTYPE svg  PUBLIC '-//W3C//DTD SVG 1.1//EN'  'http://www.w3.org/Graphics/SVG/1.1/DTD/svg11.dtd'><svg height="100%" style="fill-rule:evenodd;clip-rule:evenodd;stroke-linejoin:round;stroke-miterlimit:1.41421;" version="1.1" viewBox="0 0 101 126" width="100%" xml:space="preserve" xmlns="http://www.w3.org/2000/svg" xmlns:serif="http://www.serif.com/" xmlns:xlink="http://www.w3.org/1999/xlink"><g><path d="M60.868,107.479c2,0 4.1,-0.8 5.7,-2.3l5.4,-5.4c1.4,-1.4 1.6,-3.6 0.4,-5.2c-2.2,-3 -1.9,-7.1 0.7,-9.7c2.6,-2.6 6.7,-2.9 9.7,-0.7c1.6,1.2 3.8,1 5.2,-0.4l5.4,-5.4c3.1,-3.1 3.1,-8.2 0,-11.3l-46.9,-47.1c-3.1,-3.1 -8.2,-3.1 -11.3,0l-5.4,5.4c-1.4,1.4 -1.6,3.6 -0.4,5.2c2.2,3 1.9,7.1 -0.7,9.7c-2.6,2.6 -6.7,2.9 -9.7,0.7c-1.6,-1.2 -3.8,-1 -5.2,0.4l-5.4,5.4c-3.1,3.1 -3.1,8.2 0,11.3l46.9,46.9c1.5,1.7 3.6,2.5 5.6,2.5Zm23.6,-31.6c-5.7,-2.5 -12.5,-1.3 -17.1,3.3c-4.6,4.6 -5.8,11.3 -3.3,17.1l-3.2,3.2l-30.6,-30.6l26.9,-26.9l30.6,30.6l-3.3,3.3Zm-67.2,-26.6c5.7,2.5 12.5,1.3 17.1,-3.3c4.6,-4.6 5.8,-11.3 3.3,-17.1l3.3,-3.3l10.6,10.6l-27,27l-10.6,-10.6l3.3,-3.3Z" style="fill-rule:nonzero;"/><path d="M84.468,75.879c-5.7,-2.5 -12.5,-1.3 -17.1,3.3c-4.6,4.6 -5.8,11.3 -3.3,17.1l-3.2,3.2l-30.6,-30.6l26.9,-26.9l30.6,30.6l-3.3,3.3Z" style="fill:#4cff30;"/><path d="M32.186,66.961l33.6,27.6l-4.918,4.918l-30.6,-30.6l1.918,-1.918Z" style="fill:#020000;fill-opacity:0.2;"/><path d="M17.268,49.279c5.7,2.5 12.5,1.3 17.1,-3.3c4.6,-4.6 5.8,-11.3 3.3,-17.1l3.3,-3.3l10.6,10.6l-27,27l-10.6,-10.6l3.3,-3.3Z" style="fill:#fff;"/><path d="M61.85,54.728l-18.809,18.809l5.657,5.657l18.809,-18.809l-5.657,-5.657Z"/><path d="M15.927,50.702l13.559,7.559l-4.918,4.918l-10.559,-10.559l1.918,-1.918Z" style="fill:#020000;fill-opacity:0.2;"/></g></svg>